<?xml version="1.0" encoding="utf-8"?>
<!-- Generator: Adobe Illustrator 19.0.0, SVG Export Plug-In . SVG Version: 6.00 Build 0)  -->
<svg version="1.1" id="Layer_1" xmlns="http://www.w3.org/2000/svg" xmlns:xlink="http://www.w3.org/1999/xlink" x="0px" y="0px"
	 viewBox="0 0 206 212" style="enable-background:new 0 0 206 212;" xml:space="preserve">
<style type="text/css">
	.st0{fill:#FBEDEB;}
</style>
<path class="st0" d="M85.7,31.3h-6c-6.8,0-12.3,5.5-12.3,12.3V102h10.4V76.3h10.8V102H98V43.7C98,36.9,92.5,31.3,85.7,31.3z
	 M88,67.9H77.8V44.3c0-2.1,1.7-3.8,3.8-3.8h2.6c2.1,0,3.8,1.7,3.8,3.8V67.9z"/>
<path class="st0" d="M130.7,31.3h-8c-6.3,0-11.3,5.1-11.3,11.3V102h10.3V76.3h10.8V102h9.7V42.7C142,36.4,136.9,31.3,130.7,31.3z
	 M131.8,67.9h-10.3V44.3c0-2.1,1.7-3.8,3.8-3.8h2.6c2.1,0,3.8,1.7,3.8,3.8V67.9z"/>
<path class="st0" d="M54.3,58.2V42.8c0-6.4-5.2-11.5-11.5-11.5H24.3V102h21.3c4.8,0,8.8-3.9,8.8-8.8V74.3c0-5-4-9-9-9h1.8
	C51.1,65.3,54.3,62.1,54.3,58.2z M34.5,40.7H40c2.6,0,4.7,2.1,4.7,4.7v11.8c0,2.6-2.1,4.7-4.7,4.7h-5.5V40.7z M45.7,74.8v14.2
	c0,2.3-1.8,4.1-4.1,4.1h-7.1V70.7h7.1C43.8,70.7,45.7,72.5,45.7,74.8z"/>
<path class="st0" d="M185,63.5V43.7c0-6-4.2-11-9.8-12.3h-20.9V102h10.3V73.2h4.5l7.3,28.8h8.5v-1.2l-7-28
	C182,71.6,185,67.9,185,63.5z M174.7,60.8c0,2.6-2.1,4.8-4.8,4.8H164v-25h5.9c2.6,0,4.8,2.1,4.8,4.8V60.8z"/>
<rect x="154.2" y="71.7" class="st0" width="0.2" height="1.5"/>
<path class="st0" d="M131.8,110.6v25.8h-10.8v-25.8h-9.5v58.3c0,6.8,5.5,12.3,12.3,12.3h6c6.8,0,12.3-5.5,12.3-12.3v-58.3H131.8z
	 M131.8,168.3c0,2.1-1.7,3.8-3.8,3.8h-2.6c-2.1,0-3.8-1.7-3.8-3.8v-23.6h10.3V168.3z"/>
<path class="st0" d="M88,110.6v25.8H77.3v-25.8h-9.7v59.3c0,6.3,5.1,11.3,11.3,11.3h8c6.3,0,11.3-5.1,11.3-11.3v-59.3H88z M88,168.3
	c0,2.1-1.7,3.8-3.8,3.8h-2.6c-2.1,0-3.8-1.7-3.8-3.8v-23.6H88V168.3z"/>
<path class="st0" d="M164,110.6c-4.8,0-8.8,3.9-8.8,8.8v18.9c0,5,4,9,9,9h-1.8c-3.9,0-7.2,3.2-7.2,7.2v15.3
	c0,6.3,5.2,11.5,11.5,11.5h18.5v-70.7H164z M175.1,171.9h-5.5c-2.6,0-4.7-2.1-4.7-4.7v-11.8c0-2.6,2.1-4.7,4.7-4.7h5.5V171.9z
	 M175.1,141.9H168c-2.3,0-4.1-1.8-4.1-4.1v-14.2c0-2.3,1.8-4.1,4.1-4.1h7.1V141.9z"/>
<path class="st0" d="M44.9,110.6v28.8h-4.5l-7.3-28.8h-8.5v1.2l7,28c-4,1.2-7,4.9-7,9.3v19.8c0,6,4.2,11.1,9.8,12.3h20.9v-70.7H44.9
	z M45.6,172.1h-5.9c-2.6,0-4.8-2.1-4.8-4.8v-15.5c0-2.6,2.1-4.8,4.8-4.8h5.9V172.1z"/>
<rect x="55.3" y="139.4" class="st0" width="0.2" height="1.5"/>
</svg>
